<?xml version="1.0" encoding="UTF-8"?>
<svg width="33.315mm" height="37.921mm" version="1.1" viewBox="0 0 33.315 37.921" xmlns="http://www.w3.org/2000/svg" xmlns:cc="http://creativecommons.org/ns#" xmlns:dc="http://purl.org/dc/elements/1.1/" xmlns:rdf="http://www.w3.org/1999/02/22-rdf-syntax-ns#"><defs><clipPath id="a"><path d="m239.03 226.6-42.13 24.317a5.085 5.085 0 0 0-2.546 4.406v48.668c0 1.817 0.968 3.496 2.546 4.406l42.133 24.336a5.1 5.1 0 0 0 5.09 0l42.126-24.336a5.096 5.096 0 0 0 2.54-4.406v-48.668c0-1.816-0.97-3.496-2.55-4.406l-42.12-24.317a5.123 5.123 0 0 0-5.1 0"/></clipPath><linearGradient id="b" x1="-.348" x2="1.251" gradientTransform="matrix(-38.065 77.652 -77.652 -38.065 258.72 244.63)" gradientUnits="userSpaceOnUse"><stop stop-color="#3e863d" offset=".3"/><stop stop-color="#55934f" offset=".5"/><stop stop-color="#5aad45" offset=".8"/></linearGradient><clipPath id="c"><path d="m195.4 307.09c0.403 0.523 0.907 0.976 1.5 1.316l36.14 20.875 6.02 3.46c0.9 0.52 1.926 0.74 2.934 0.665 0.336-0.027 0.672-0.09 1-0.183l44.434-81.36c-0.34-0.37-0.738-0.68-1.184-0.94l-27.586-15.93-14.582-8.39a5.318 5.318 0 0 0-1.32-0.53z"/></clipPath><linearGradient id="d" x1="-.456" x2=".582" gradientTransform="matrix(106.81 -78.917 78.917 106.81 235.19 285.39)" gradientUnits="userSpaceOnUse"><stop stop-color="#3e863d" offset=".57"/><stop stop-color="#619857" offset=".72"/><stop stop-color="#76ac64" offset="1"/></linearGradient><clipPath id="e"><path d="m241.07 225.95a5.14 5.14 0 0 0-2.035 0.652l-42.01 24.247 45.3 82.51c0.63-0.09 1.25-0.3 1.81-0.624l42.13-24.336a5.105 5.105 0 0 0 2.46-3.476l-46.18-78.89a5.29 5.29 0 0 0-1.03-0.102c-0.14 0-0.28 7e-3 -0.42 0.02"/></clipPath><linearGradient id="f" x1=".043" x2=".984" gradientTransform="matrix(97.417 0 0 97.417 192.86 279.65)" gradientUnits="userSpaceOnUse"><stop stop-color="#6bbf47" offset=".16"/><stop stop-color="#79b461" offset=".38"/><stop stop-color="#75ac64" offset=".47"/><stop stop-color="#659e5a" offset=".7"/><stop stop-color="#3e863d" offset=".9"/></linearGradient></defs><metadata><rdf:RDF><cc:Work rdf:about=""><dc:format>image/svg+xml</dc:format><dc:type rdf:resource="http://purl.org/dc/dcmitype/StillImage"/><dc:title/></cc:Work></rdf:RDF></metadata><g transform="translate(-79.349 -123.91)"><g transform="matrix(.35278 0 0 .35278 10.785 44.213)" clip-path="url(#a)"><path d="m331.36 246.79-118.72-58.19-60.87 124.17 118.71 58.193z" fill="url(#b)"/></g><g transform="matrix(.35278 0 0 .35278 10.785 44.213)" clip-path="url(#c)"><path d="m144.07 264 83.825 113.45 110.86-81.906-83.83-113.45z" fill="url(#d)"/></g><g transform="matrix(.35278 0 0 .35278 10.785 44.213)" clip-path="url(#e)"><path d="m197.02 225.93v107.43h91.683v-107.43z" fill="url(#f)"/></g></g></svg>
